<svg xmlns="http://www.w3.org/2000/svg" viewBox="0 0 32 32" width="32" height="32">
  <rect x="6.90" y="5.42" width="2.80" height="9.32" rx="0.70" fill="__FG__"/>
  <rect x="6.90" y="16.42" width="2.80" height="9.32" rx="0.70" fill="__FG__"/>
  <rect x="12.12" y="5.00" width="7.76" height="2.80" rx="0.70" fill="__FG__"/>
  <rect x="17.50" y="5.42" width="2.80" height="9.32" rx="0.70" fill="__FG__"/>
  <rect x="17.50" y="16.42" width="2.80" height="9.32" rx="0.70" fill="__FG__"/>
  <rect x="12.12" y="24.20" width="7.76" height="2.80" rx="0.70" fill="__FG__"/>
  <rect x="11.70" y="16.42" width="2.80" height="9.32" rx="0.70" fill="__FG__"/>
  <rect x="11.70" y="5.42" width="2.80" height="9.32" rx="0.70" fill="__FG__"/>
  <rect x="22.72" y="5.00" width="7.76" height="2.80" rx="0.70" fill="__FG__"/>
  <rect x="28.10" y="5.42" width="2.80" height="9.32" rx="0.70" fill="__FG__"/>
  <rect x="28.10" y="16.42" width="2.80" height="9.32" rx="0.70" fill="__FG__"/>
  <rect x="22.72" y="24.20" width="7.76" height="2.80" rx="0.70" fill="__FG__"/>
  <rect x="22.30" y="16.42" width="2.80" height="9.32" rx="0.70" fill="__FG__"/>
  <rect x="22.30" y="5.42" width="2.80" height="9.32" rx="0.70" fill="__FG__"/>
</svg>
